<svg xmlns="http://www.w3.org/2000/svg" width="1200" height="1200" viewBox="0 0 1200 1200">
<defs><linearGradient id="g" x1="0" y1="0" x2="1" y2="1">
<stop offset="0%" stop-color="#081425"/><stop offset="55%" stop-color="#0fdc7a"/><stop offset="100%" stop-color="#090212"/></linearGradient></defs>
<rect width="1200" height="1200" fill="url(#g)"/>
<text x="80" y="220" font-size="82" font-family="Arial" fill="#fff" font-weight="700">Neon Skyline</text>
<text x="86" y="300" font-size="30" font-family="Arial" fill="#d6d6ff">Procedural lyric-video lane</text>
<g transform="translate(88 430)"><rect x="0" y="100" width="16" height="10" rx="8" fill="rgba(255,255,255,0.8)"/><rect x="28" y="83" width="16" height="27" rx="8" fill="rgba(255,255,255,0.8)"/><rect x="56" y="66" width="16" height="44" rx="8" fill="rgba(255,255,255,0.8)"/><rect x="84" y="49" width="16" height="61" rx="8" fill="rgba(255,255,255,0.8)"/><rect x="112" y="32" width="16" height="78" rx="8" fill="rgba(255,255,255,0.8)"/><rect x="140" y="15" width="16" height="95" rx="8" fill="rgba(255,255,255,0.8)"/><rect x="168" y="93" width="16" height="17" rx="8" fill="rgba(255,255,255,0.8)"/><rect x="196" y="76" width="16" height="34" rx="8" fill="rgba(255,255,255,0.8)"/><rect x="224" y="59" width="16" height="51" rx="8" fill="rgba(255,255,255,0.8)"/><rect x="252" y="42" width="16" height="68" rx="8" fill="rgba(255,255,255,0.8)"/><rect x="280" y="25" width="16" height="85" rx="8" fill="rgba(255,255,255,0.8)"/><rect x="308" y="8" width="16" height="102" rx="8" fill="rgba(255,255,255,0.8)"/><rect x="336" y="86" width="16" height="24" rx="8" fill="rgba(255,255,255,0.8)"/><rect x="364" y="69" width="16" height="41" rx="8" fill="rgba(255,255,255,0.8)"/><rect x="392" y="52" width="16" height="58" rx="8" fill="rgba(255,255,255,0.8)"/><rect x="420" y="35" width="16" height="75" rx="8" fill="rgba(255,255,255,0.8)"/><rect x="448" y="18" width="16" height="92" rx="8" fill="rgba(255,255,255,0.8)"/><rect x="476" y="96" width="16" height="14" rx="8" fill="rgba(255,255,255,0.8)"/><rect x="504" y="79" width="16" height="31" rx="8" fill="rgba(255,255,255,0.8)"/><rect x="532" y="62" width="16" height="48" rx="8" fill="rgba(255,255,255,0.8)"/><rect x="560" y="45" width="16" height="65" rx="8" fill="rgba(255,255,255,0.8)"/><rect x="588" y="28" width="16" height="82" rx="8" fill="rgba(255,255,255,0.8)"/><rect x="616" y="11" width="16" height="99" rx="8" fill="rgba(255,255,255,0.8)"/><rect x="644" y="89" width="16" height="21" rx="8" fill="rgba(255,255,255,0.8)"/><rect x="672" y="72" width="16" height="38" rx="8" fill="rgba(255,255,255,0.8)"/><rect x="700" y="55" width="16" height="55" rx="8" fill="rgba(255,255,255,0.8)"/><rect x="728" y="38" width="16" height="72" rx="8" fill="rgba(255,255,255,0.8)"/><rect x="756" y="21" width="16" height="89" rx="8" fill="rgba(255,255,255,0.8)"/><rect x="784" y="99" width="16" height="11" rx="8" fill="rgba(255,255,255,0.8)"/><rect x="812" y="82" width="16" height="28" rx="8" fill="rgba(255,255,255,0.8)"/></g>
</svg>